<?xml version="1.0" standalone="no"?>
<!DOCTYPE svg PUBLIC "-//W3C//DTD SVG 1.1//EN" "http://www.w3.org/Graphics/SVG/1.1/DTD/svg11.dtd" >
<svg xmlns="http://www.w3.org/2000/svg">
<metadata>Generated by IcoMoon</metadata>
<defs>
<font id="icomoon" horiz-adv-x="512">
<font-face units-per-em="512" ascent="480" descent="-32" />
<missing-glyph horiz-adv-x="512" />
<glyph unicode="&#x20;" d="" horiz-adv-x="256" />
<glyph unicode="&#xe50e;" d="M489.882 356.915l-1.229-29.901-34.611-22.221-16.589-39.834-14.233-11.776-36.147 11.879-17.613-40.448-20.377-7.271-34.099 10.24-43.827-29.901c0.921-6.144 1.536-12.493 1.536-18.944 0-72.909-59.085-131.891-131.891-131.891s-132.096 59.085-132.096 131.994 59.085 131.891 131.891 131.891c31.13 0 59.699-10.854 82.329-28.877l214.528 122.368 31.539-2.253 35.533-15.257-14.643-29.798zM107.623 200.755c-24.269 0-43.929-19.661-43.929-43.93s19.661-43.93 43.929-43.93 43.929 19.661 43.929 43.93c0.102 24.269-19.661 43.93-43.929 43.93z" />
<glyph unicode="&#xe510;" d="M256-21.76c-207.667 76.288-206.233 251.494-206.233 251.494v144.281c115.405 10.752 202.035 92.672 206.233 96.768 4.199-4.096 90.829-86.016 206.233-96.768v-144.281c0 0 1.331-175.206-206.233-251.494zM238.080 286.054c0 16.077-13.107 29.184-29.184 29.184h-43.827c-16.077 0-29.184-13.107-29.184-29.184v-146.125c0-16.077 13.107-29.184 29.184-29.184h43.827c16.077 0 29.184 13.107 29.184 29.184v146.125zM369.562 170.035c0 11.981-4.403 21.606-14.029 31.027l-58.983 58.778v26.317h43.827v-29.389h29.184v29.184c0 16.077-13.107 29.184-29.184 29.184h-43.827c-16.077 0-29.184-13.107-29.184-29.184v-22.528c0-11.981 4.403-21.606 14.029-31.027l58.983-58.777v-33.894h-43.827v29.184h-29.286v-29.184c0-16.077 13.107-29.184 29.184-29.184h43.827c16.077 0 29.184 13.107 29.184 29.184v30.31zM165.069 286.054h43.827v-146.125h-43.827v146.125z" />
<glyph unicode="&#xe515;" d="M472.166 270.080c-30.208-49.562-85.094-65.434-85.094-65.434l15.053-14.131-26.726-30.822-22.118 37.171c0 0-7.475-12.8-17.408-22.938-9.728-9.933-21.913-17.203-21.913-17.203l-0.921-30.618-15.565-0.307c0 0-0.819-11.059 1.331-21.401 3.379-16.486 10.342-36.454 10.342-36.454l35.942 0.921 6.451-48.435h-190.157l6.451 48.435 35.942-0.921c0 0 6.963 20.070 10.343 36.454 2.15 10.342 1.331 21.401 1.331 21.401l-15.565 0.307-0.922 30.618c0 0-12.185 7.271-21.913 17.203-9.933 10.137-17.408 22.938-17.408 22.938l-22.425-37.171-26.727 30.822 15.053 14.131c0 0-54.784 15.974-85.094 65.433-34.407 56.32-30.925 126.976-30.925 126.976l96.665 14.336-1.536 13.926h303.309l-1.536-13.926 96.666-14.336c0 0 3.481-70.656-30.925-126.976zM130.355 296.807c-3.891 34.099-2.56 73.318-2.56 73.318l-18.023-34.714-25.703 14.131 11.367 21.913-1.127 8.909-55.296-7.68c0 0 1.434-54.784 34.714-99.021 24.166-32.051 70.656-44.953 70.656-44.953s-9.216 25.907-14.029 68.096zM198.554 381.594h-38.605c0 0-4.198-66.355 5.632-113.050 11.367-53.862 32.87-64.307 32.87-64.307v177.357zM418.304 380.365l-1.127-8.909 11.366-21.913-25.702-14.131-18.022 34.714c0 0 1.229-39.219-2.56-73.318-4.813-42.189-14.131-68.096-14.131-68.096s46.592 12.903 70.656 44.953c33.28 44.237 34.714 99.021 34.714 99.021l-55.193 7.68z" />
<glyph unicode="&#xe600;" d="M44.339 243.047c22.835 22.835 58.983 23.859 83.456 3.584l0.409 0.41 64.205-64.205v237.977h0.614c2.867 31.642 29.184 56.423 61.542 56.423s58.675-24.883 61.543-56.423h0.615v-240.845l67.072 67.072 0.409-0.41c24.371 20.275 60.519 19.251 83.456-3.584 22.835-22.835 23.859-58.982 3.584-83.456l0.409-0.409-175.821-175.616-0.409 0.409c-22.938-19.047-56.115-19.047-79.053 0l-0.41-0.409-175.616 175.719 0.41 0.409c-20.378 24.371-19.354 60.519 3.584 83.353z" />
<glyph unicode="&#xe601;" d="M275.456 435.046c22.835-22.835 23.859-58.983 3.584-83.456l0.409-0.41-64.205-64.205h237.875v-0.615c31.642-2.867 56.423-29.184 56.423-61.542s-24.883-58.675-56.423-61.543v-0.615h-240.743l67.072-66.969-0.409-0.409c20.275-24.371 19.251-60.519-3.584-83.456-22.835-22.835-58.983-23.859-83.456-3.584l-0.41-0.409-175.616 175.719 0.41 0.409c-19.047 22.938-19.047 56.115 0 79.053l-0.409 0.409 175.616 175.616 0.41-0.409c24.371 20.275 60.519 19.251 83.456-3.584z" />
<glyph unicode="&#xe602;" d="M236.237 11.827c-22.835 22.835-23.859 58.983-3.584 83.456l-0.41 0.409 64.205 64.205h-237.875v0.615c-31.642 2.867-56.422 29.184-56.422 61.543s24.883 58.675 56.422 61.542v0.615h240.743l-67.072 66.969 0.41 0.41c-20.275 24.371-19.251 60.518 3.584 83.456 22.835 22.835 58.982 23.859 83.456 3.584l0.409 0.41 175.616-175.719-0.409-0.41c19.047-22.938 19.047-56.115 0-79.053l0.409-0.409-175.616-175.616-0.409 0.409c-24.371-20.275-60.519-19.251-83.456 3.584z" />
<glyph unicode="&#xe603;" d="M467.456 203.827c-22.835-22.835-58.983-23.859-83.456-3.584l-0.409-0.409-64.205 64.205v-237.875h-0.615c-2.867-31.642-29.184-56.423-61.543-56.423s-58.675 24.883-61.542 56.423h-0.614v240.743l-66.969-67.072-0.409 0.409c-24.371-20.275-60.519-19.251-83.456 3.584-22.835 22.835-23.859 58.983-3.584 83.456l-0.41 0.409 175.719 175.616 0.41-0.409c22.938 19.046 56.115 19.046 79.053 0l0.409 0.409 175.616-175.616-0.409-0.409c20.275-24.371 19.251-60.519-3.584-83.456z" />
<glyph unicode="&#xe604;" d="M256.717-31.079c-140.288 0-254.054 114.074-254.054 254.873-0.103 140.8 113.664 254.874 254.054 254.874 140.288 0 254.054-114.074 254.054-254.874s-113.767-254.874-254.054-254.874zM256.717 419.891c-107.93 0-195.482-87.757-195.482-196.096s87.45-196.096 195.482-196.096c107.93 0 195.481 87.757 195.481 196.096s-87.552 196.096-195.481 196.096zM345.293 154.471l-19.763-19.865c-3.687-3.687-9.523-3.687-13.209 0l-56.115 56.32-56.115-56.32c-3.686-3.687-9.523-3.687-13.209 0l-19.763 19.865c-3.686 3.687-3.686 9.625 0 13.209l56.115 56.32-56.115 56.32c-3.686 3.686-3.686 9.625 0 13.209l19.763 19.865c3.686 3.687 9.523 3.687 13.209 0l56.115-56.32 56.115 56.32c3.687 3.687 9.523 3.687 13.209 0l19.763-19.865c3.687-3.687 3.687-9.625 0-13.209l-56.115-56.32 56.115-56.32c3.687-3.584 3.687-9.523 0-13.209z" />
<glyph unicode="&#xe605;" d="M465.408 46.131c-61.952 0-116.429 103.117-209.305 103.117-114.791 0-126.055-104.448-209.92-104.448-99.328 0-23.245 357.274 109.671 357.274 19.353 0 64.512-30.925 100.557-30.925s78.643 30.925 100.557 30.925c132.915 0 207.769-355.942 108.442-355.942zM148.071 340.224c-38.502 0-69.632-31.232-69.632-69.632 0-38.502 31.232-69.632 69.632-69.632 38.502 0 69.632 31.232 69.632 69.632 0.102 38.4-31.13 69.632-69.632 69.632zM332.902 270.49c-8.499 0-15.462-6.963-15.462-15.463s6.963-15.463 15.462-15.463c8.499 0 15.462 6.963 15.462 15.463 0 8.601-6.963 15.463-15.462 15.463zM380.313 316.979c-8.499 0-15.462-6.963-15.462-15.463s6.963-15.463 15.462-15.463c8.499 0 15.462 6.963 15.462 15.463s-6.963 15.463-15.462 15.463zM380.313 224.102c-8.499 0-15.462-6.963-15.462-15.463s6.963-15.462 15.462-15.462c8.499 0 15.462 6.963 15.462 15.462s-6.963 15.463-15.462 15.463zM426.701 270.49c-8.499 0-15.462-6.963-15.462-15.463s6.963-15.463 15.462-15.463c8.499 0 15.462 6.963 15.462 15.463 0 8.601-6.861 15.463-15.462 15.463zM148.071 231.782c-21.401 0-38.707 17.305-38.707 38.707s17.305 38.707 38.707 38.707c21.401 0 38.707-17.306 38.707-38.707 0-21.299-17.305-38.707-38.707-38.707z" />
<glyph unicode="&#xe606;" d="M392.089 50.329c-55.194-52.531-136.089-81.51-136.089-81.51s-80.896 28.877-136.089 81.51c-51.609 49.152-77.824 122.266-77.824 122.266v203.673c0 0 61.747 14.541 116.634 40.755 52.019 24.678 97.28 61.133 97.28 61.133s45.261-36.352 97.178-61.133c54.887-26.112 116.634-40.755 116.634-40.755v-203.673c0.103 0-26.112-73.113-77.721-122.265z" />
<glyph unicode="&#xe607;" d="M256-30.669c-140.391 0-254.157 113.767-254.157 254.157s113.766 254.157 254.157 254.157 254.157-113.767 254.157-254.157-113.767-254.157-254.157-254.157zM256 396.339c-95.437 0-172.851-77.415-172.851-172.851s77.415-172.851 172.851-172.851 172.851 77.415 172.851 172.851-77.414 172.851-172.851 172.851zM184.627 335.309l203.776-111.718-203.776-111.719v223.437z" />
<glyph unicode="&#xe608;" d="M256.307 224l-255.59 255.693v-511.283l255.59 255.59zM256.717 479.693v-511.283l255.591 255.59-255.591 255.693z" />
<glyph unicode="&#xe609;" d="M256.717 224l254.771 255.078v-510.259l-254.771 255.181zM256.307 479.079v-510.259l-254.771 255.181 254.771 255.078z" />
<glyph unicode="&#xe60a;" d="M229.683 455.014l123.085-208.793c8.192-13.927 8.192-31.232 0-45.159l-123.085-208.691c-22.938-39.014-82.739-22.63-82.739 22.528v417.587c0 45.261 59.699 61.543 82.739 22.528z" />
<glyph unicode="&#xe60b;" d="M276.173-7.629l-123.085 208.793c-8.192 13.926-8.192 31.232 0 45.159l123.085 208.691c22.938 39.014 82.739 22.63 82.739-22.528v-417.485c0-45.261-59.699-61.543-82.739-22.63z" />
<glyph unicode="&#xe60c;" d="M470.938 44.185h-35.84v-35.942c0-19.865-16.077-35.942-35.84-35.942s-35.84 16.077-35.84 35.942v35.942h-35.84c-19.763 0-35.84 16.077-35.84 35.942s16.077 35.942 35.84 35.942h35.84v35.942c0 19.865 16.077 35.942 35.84 35.942s35.84-16.077 35.84-35.942v-35.942h35.84c19.763 0 35.84-16.077 35.84-35.942s-16.077-35.942-35.84-35.942zM296.653 183.142c-44.237-13.414-76.697-54.17-76.697-102.912 0-46.899 30.003-86.528 71.68-101.376v-6.656h-251.085c-19.763 0-35.84 16.077-35.84 35.942 0 71.987 69.325 139.161 140.185 165.683-40.96 25.395-68.403 70.349-68.403 122.163v35.942c0 79.463 64.205 143.974 143.463 143.974s143.462-64.409 143.462-143.974v-35.942c0-16.793-3.789-32.358-9.011-47.309-27.341-12.8-48.947-36.045-57.753-65.536z" />
<glyph unicode="&#xe60d;" d="M509.235-27.904h-94.925v62.976h-63.283v62.976h-63.283v31.437h-63.283v44.851c-19.456-8.499-40.755-13.312-63.283-13.312-87.45 0-158.31 70.451-158.31 157.389-0.103 86.938 70.758 157.491 158.208 157.491s158.311-70.451 158.311-157.389c0-22.425-4.915-43.622-13.414-62.976h45.056v-31.539l158.31-125.952v-125.952zM129.331 412.928c-34.918 0-63.283-28.16-63.283-62.976s28.365-62.976 63.283-62.976c34.918 0 63.283 28.16 63.283 62.976 0.102 34.714-28.262 62.976-63.283 62.976z" />
<glyph unicode="&#xe60e;" d="M19.763 68.045c10.24-5.632 22.733-5.017 32.358 1.639l189.338 129.024c8.806 5.939 14.029 16.077 14.029 26.829s-5.222 20.889-14.029 26.829l-189.338 129.024c-9.626 6.553-22.119 7.168-32.358 1.638-10.24-5.632-16.691-16.589-16.691-28.467v-258.048c0-11.878 6.451-22.835 16.691-28.467zM272.179 68.045c10.24-5.632 22.733-5.017 32.358 1.639l189.338 129.024c8.807 5.939 14.029 16.077 14.029 26.829s-5.223 20.889-14.029 26.829l-189.337 129.024c-9.625 6.553-22.118 7.168-32.358 1.638-10.24-5.632-16.691-16.486-16.691-28.467v-258.048c0-11.878 6.451-22.835 16.691-28.467z" />
<glyph unicode="&#xe60f;" d="M53.657-30.464c-9.216 0-18.535 2.56-26.624 7.577-14.848 9.216-23.962 25.498-23.962 43.111v405.094c0 17.51 9.114 33.894 23.962 43.111 8.089 5.017 17.408 7.577 26.624 7.577 7.782-0.102 15.565-1.843 22.733-5.427l405.095-202.547c17.203-8.601 27.955-26.112 27.955-45.261s-10.854-36.762-27.955-45.261l-405.094-202.649c-7.168-3.584-14.95-5.325-22.733-5.325z" />
<glyph unicode="&#xe610;" d="M491.213 383.027c-10.24 5.632-22.733 5.017-32.358-1.638l-189.337-129.024c-8.807-5.939-14.029-16.077-14.029-26.829s5.223-20.889 14.029-26.829l189.337-129.024c9.625-6.553 22.118-7.168 32.358-1.639 10.24 5.632 16.691 16.486 16.691 28.467v258.048c0 11.879-6.451 22.835-16.691 28.467zM238.797 383.027c-10.24 5.632-22.733 5.017-32.358-1.638l-189.338-129.024c-8.806-5.939-14.029-16.077-14.029-26.829s5.223-20.889 14.029-26.829l189.338-129.024c9.625-6.553 22.119-7.168 32.358-1.639 10.24 5.632 16.691 16.486 16.691 28.467v258.048c0 11.879-6.451 22.835-16.691 28.467z" />
<glyph unicode="&#xe611;" d="M256.205 477.952c-138.343 0-250.47-113.459-250.47-253.44s112.128-253.44 250.47-253.44 250.47 113.459 250.47 253.44c0 139.981-112.128 253.44-250.471 253.44zM256.205 34.457c-103.731 0-187.904 85.094-187.904 190.054s84.173 190.054 187.904 190.054 187.904-85.094 187.904-190.054c0-104.96-84.173-190.054-187.904-190.054zM309.658 310.221c-8.909 9.011-22.425 11.776-34.202 6.861-11.673-4.915-19.353-16.486-19.353-29.286v-31.642h-93.901c-17.305 0-31.334-14.131-31.334-31.642s14.029-31.642 31.334-31.642h93.901v-31.642c0-12.8 7.68-24.371 19.353-29.286 11.776-4.915 25.19-2.151 34.202 6.861l62.669 63.385c6.144 6.144 9.216 14.336 9.216 22.425s-3.072 16.179-9.216 22.425l-62.669 63.181z" />
<glyph unicode="&#xe612;" d="M256.205 477.952c-138.343 0-250.47-113.459-250.47-253.44s112.128-253.44 250.47-253.44 250.47 113.459 250.47 253.44c0 139.981-112.128 253.44-250.471 253.44zM256.205 34.457c-103.731 0-187.904 85.094-187.904 190.054s84.173 190.054 187.904 190.054 187.904-85.094 187.904-190.054c0-104.96-84.173-190.054-187.904-190.054zM350.208 256.154h-93.901v31.642c0 12.8-7.68 24.371-19.353 29.286-11.776 4.915-25.19 2.15-34.202-6.861l-62.669-63.386c-6.144-6.144-9.216-14.336-9.216-22.425s3.072-16.179 9.216-22.425l62.669-63.385c8.909-9.011 22.425-11.776 34.202-6.861 11.673 4.915 19.353 16.486 19.353 29.286v31.642h93.901c17.305 0 31.334 14.131 31.334 31.642-0.103 17.715-14.029 31.846-31.334 31.846z" />
<glyph unicode="&#xe613;" d="M127.079 398.285l25.088 25.088c9.113 9.113 11.776 22.631 6.861 34.509s-16.384 19.558-29.184 19.558h-95.129c-17.408 0-31.642-14.233-31.642-31.642v-95.027c0-12.8 7.68-24.371 19.558-29.286 3.891-1.639 8.089-2.457 12.083-2.457 8.294 0 16.384 3.174 22.425 9.318l25.088 25.088 88.474-88.473c12.391-12.391 32.461-12.391 44.749 0s12.391 32.461 0 44.749l-88.371 88.576zM478.31 477.44h-95.027c-12.8 0-24.371-7.68-29.286-19.558s-2.151-25.498 6.861-34.509l25.088-25.088-88.474-88.473c-12.39-12.391-12.39-32.461 0-44.749 12.39-12.391 32.461-12.391 44.749 0l88.474 88.474 25.088-25.088c6.041-6.041 14.131-9.318 22.425-9.318 4.096 0 8.192 0.819 12.083 2.457 11.776 4.915 19.558 16.487 19.558 29.287v94.925c0.103 17.408-14.029 31.642-31.539 31.642zM170.803 183.040l-88.474-88.474-25.088 25.088c-6.041 6.041-14.131 9.319-22.425 9.319-4.096 0-8.192-0.819-12.083-2.457-11.981-4.813-19.661-16.384-19.661-29.184v-95.027c0-17.51 14.233-31.642 31.642-31.642h95.027c12.8 0 24.371 7.783 29.286 19.558 4.915 11.878 2.15 25.498-6.861 34.509l-25.088 25.088 88.474 88.474c12.391 12.39 12.391 32.461 0 44.749s-32.461 12.39-44.749 0zM490.394 126.515c-3.891 1.639-8.089 2.457-12.083 2.457-8.192 0-16.384-3.175-22.425-9.318l-25.088-25.088-88.576 88.474c-12.39 12.39-32.461 12.39-44.749 0-12.39-12.39-12.39-32.461 0-44.749l88.474-88.474-25.088-25.088c-9.113-9.113-11.776-22.63-6.861-34.509 4.915-11.776 16.486-19.558 29.286-19.558h95.027c17.51 0 31.642 14.131 31.642 31.642v95.027c0 12.8-7.783 24.371-19.558 29.184z" />
<glyph unicode="&#xe614;" d="M257.127 73.165c-187.29 0-249.754 153.088-249.754 153.088s62.464 153.088 249.754 153.088c187.29 0 249.753-153.088 249.753-153.088s-62.464-153.088-249.754-153.088zM257.127 318.106c-51.712 0-93.696-41.165-93.696-91.853s41.881-91.853 93.696-91.853c51.712 0 93.696 41.165 93.696 91.853 0 50.791-41.984 91.853-93.696 91.853zM257.127 165.017c-34.509 0-62.464 27.443-62.464 61.235h62.464l-44.135 43.315c11.264 11.059 26.931 17.92 44.135 17.92 34.509 0 62.464-27.443 62.464-61.235s-27.955-61.235-62.464-61.235z" />
<glyph unicode="&#xe615;" d="M10.752 389.376c0 7.475 2.457 14.951 7.373 21.504 9.011 12.083 24.781 19.456 41.779 19.456h393.216c16.998 0 32.87-7.373 41.779-19.456 4.915-6.553 7.373-14.029 7.373-21.504 0-6.246-1.741-12.493-5.223-18.329l-196.608-327.68c-8.295-13.926-25.293-22.63-43.93-22.63s-35.635 8.807-43.929 22.63l-196.608 327.68c-3.482 5.734-5.223 12.083-5.223 18.329z" />
<glyph unicode="&#xe616;" d="M420.352 471.296c7.475 0 14.95-2.457 21.504-7.373 12.083-9.011 19.456-24.781 19.456-41.779v-393.216c0-16.998-7.373-32.87-19.456-41.779-6.553-4.915-14.029-7.373-21.504-7.373-6.247 0-12.493 1.741-18.329 5.223l-327.68 196.608c-13.927 8.295-22.63 25.293-22.63 43.929s8.806 35.635 22.63 43.929l327.68 196.608c5.735 3.481 12.083 5.223 18.329 5.223z" />
<glyph unicode="&#xe617;" d="M92.672-20.224c-7.475 0-14.951 2.457-21.504 7.373-12.083 9.011-19.456 24.781-19.456 41.779v393.216c0 16.998 7.373 32.87 19.456 41.779 6.553 4.915 14.029 7.373 21.504 7.373 6.246 0 12.493-1.741 18.329-5.222l327.68-196.608c13.926-8.294 22.63-25.293 22.63-43.929s-8.807-35.635-22.63-43.929l-327.68-196.608c-5.734-3.481-12.083-5.223-18.329-5.223z" />
<glyph unicode="&#xe618;" d="M502.272 61.696c0-7.475-2.457-14.95-7.373-21.504-9.011-12.083-24.781-19.456-41.779-19.456h-393.216c-16.998 0-32.87 7.373-41.779 19.456-4.915 6.553-7.373 14.029-7.373 21.504 0 6.247 1.741 12.493 5.223 18.329l196.608 327.68c8.294 13.927 25.293 22.63 43.93 22.63s35.635-8.806 43.93-22.63l196.608-327.68c3.481-5.735 5.223-12.083 5.223-18.329z" />
<glyph unicode="&#xe619;" d="M126.976 471.399c-11.469 5.017-24.371 7.577-37.376 7.577s-26.010-2.56-37.376-7.577c-20.89-9.216-33.69-25.6-33.69-43.213v-406.323c0-17.613 12.8-33.894 33.69-43.213 11.469-5.017 24.371-7.577 37.376-7.577s26.010 2.56 37.376 7.577c20.889 9.318 33.69 25.6 33.69 43.213v406.323c0 17.613-12.8 33.894-33.69 43.213zM458.752 471.399c-11.366 5.017-24.371 7.577-37.376 7.577s-25.907-2.56-37.376-7.577c-20.889-9.216-33.69-25.6-33.69-43.213v-406.323c0-17.613 12.8-33.894 33.69-43.213 11.469-5.017 24.371-7.577 37.376-7.577s26.010 2.56 37.376 7.577c20.889 9.318 33.69 25.6 33.69 43.213v406.323c0 17.613-12.697 33.894-33.69 43.213z" />
</font>
</defs>
</svg>
